name rise36.2859peak64.2979fall75.1499.mot
datacolumns 19
datarows 36
range 12.73494700000000 12.79328400000000
endheader
time	ground_force1_vx	ground_force1_vy	ground_force1_vz	ground_force1_px	ground_force1_py	ground_force1_pz	ground_force2_vx	ground_force2_vy	ground_force2_vz	ground_force2_px	ground_force2_py	ground_force2_pz	ground_torque1_x	ground_torque1_y	ground_torque1_z	ground_torque2_x	ground_torque2_y	ground_torque2_z	
12.73494700000000	1.31510000000000	702.38545899999997	48.54255900000000	0.30173300000000	0.00000000000000	0.11073900000000	0.00000000000000	0.00000000000000	0.00000000000000	0.00000000000000	0.00000000000000	0.00000000000000	0.00000000000000	29.33512900000000	0.00000000000000	0.00000000000000	0.00000000000000	0.00000000000000	
12.73662900000000	1.05016700000000	702.99958900000001	48.53106900000000	0.30073900000000	0.00000000000000	0.11073300000000	0.00000000000000	0.00000000000000	0.00000000000000	0.00000000000000	0.00000000000000	0.00000000000000	0.00000000000000	29.33123400000000	0.00000000000000	0.00000000000000	0.00000000000000	0.00000000000000	
12.73828600000000	0.78453500000000	703.65580100000000	48.52468800000000	0.29976500000000	0.00000000000000	0.11072500000000	0.00000000000000	0.00000000000000	0.00000000000000	0.00000000000000	0.00000000000000	0.00000000000000	0.00000000000000	29.33210500000000	0.00000000000000	0.00000000000000	0.00000000000000	0.00000000000000	
12.73995500000000	0.51783000000000	704.35252600000001	48.52313000000000	0.29881100000000	0.00000000000000	0.11071300000000	0.00000000000000	0.00000000000000	0.00000000000000	0.00000000000000	0.00000000000000	0.00000000000000	0.00000000000000	29.33758100000000	0.00000000000000	0.00000000000000	0.00000000000000	0.00000000000000	
12.74162000000000	0.24968800000000	705.08825500000000	48.52611300000000	0.29787600000000	0.00000000000000	0.11069800000000	0.00000000000000	0.00000000000000	0.00000000000000	0.00000000000000	0.00000000000000	0.00000000000000	0.00000000000000	29.34749600000000	0.00000000000000	0.00000000000000	0.00000000000000	0.00000000000000	
12.74329000000000	-0.02024600000000	705.86153999999999	48.53335500000000	0.29696100000000	0.00000000000000	0.11067900000000	0.00000000000000	0.00000000000000	0.00000000000000	0.00000000000000	0.00000000000000	0.00000000000000	0.00000000000000	29.36168200000000	0.00000000000000	0.00000000000000	0.00000000000000	0.00000000000000	
12.74495100000000	-0.29231000000000	706.67100400000004	48.54457500000000	0.29606400000000	0.00000000000000	0.11065800000000	0.00000000000000	0.00000000000000	0.00000000000000	0.00000000000000	0.00000000000000	0.00000000000000	0.00000000000000	29.37996200000000	0.00000000000000	0.00000000000000	0.00000000000000	0.00000000000000	
12.74662200000000	-0.56683300000000	707.51533600000005	48.55949500000000	0.29518500000000	0.00000000000000	0.11063300000000	0.00000000000000	0.00000000000000	0.00000000000000	0.00000000000000	0.00000000000000	0.00000000000000	0.00000000000000	29.40216100000000	0.00000000000000	0.00000000000000	0.00000000000000	0.00000000000000	
12.74828300000000	-0.84412300000000	708.39330199999995	48.57784200000000	0.29432500000000	0.00000000000000	0.11060500000000	0.00000000000000	0.00000000000000	0.00000000000000	0.00000000000000	0.00000000000000	0.00000000000000	0.00000000000000	29.42809700000000	0.00000000000000	0.00000000000000	0.00000000000000	0.00000000000000	
12.74995300000000	-1.12447500000000	709.30374300000005	48.59934900000000	0.29348100000000	0.00000000000000	0.11057400000000	0.00000000000000	0.00000000000000	0.00000000000000	0.00000000000000	0.00000000000000	0.00000000000000	0.00000000000000	29.45758700000000	0.00000000000000	0.00000000000000	0.00000000000000	0.00000000000000	
12.75161600000000	-1.40816600000000	710.24557500000003	48.62375400000000	0.29265400000000	0.00000000000000	0.11053900000000	0.00000000000000	0.00000000000000	0.00000000000000	0.00000000000000	0.00000000000000	0.00000000000000	0.00000000000000	29.49044700000000	0.00000000000000	0.00000000000000	0.00000000000000	0.00000000000000	
12.75328100000000	-1.69545500000000	711.21779200000003	48.65080000000000	0.29184300000000	0.00000000000000	0.11050200000000	0.00000000000000	0.00000000000000	0.00000000000000	0.00000000000000	0.00000000000000	0.00000000000000	0.00000000000000	29.52649100000000	0.00000000000000	0.00000000000000	0.00000000000000	0.00000000000000	
12.75497600000000	-1.98658100000000	712.21946400000002	48.68024300000000	0.29104700000000	0.00000000000000	0.11046100000000	0.00000000000000	0.00000000000000	0.00000000000000	0.00000000000000	0.00000000000000	0.00000000000000	0.00000000000000	29.56553300000000	0.00000000000000	0.00000000000000	0.00000000000000	0.00000000000000	
12.75661600000000	-2.28176300000000	713.24973899999998	48.71184300000000	0.29026500000000	0.00000000000000	0.11041800000000	0.00000000000000	0.00000000000000	0.00000000000000	0.00000000000000	0.00000000000000	0.00000000000000	0.00000000000000	29.60738500000000	0.00000000000000	0.00000000000000	0.00000000000000	0.00000000000000	
12.75828500000000	-2.58119900000000	714.30783899999994	48.74537400000000	0.28949700000000	0.00000000000000	0.11037100000000	0.00000000000000	0.00000000000000	0.00000000000000	0.00000000000000	0.00000000000000	0.00000000000000	0.00000000000000	29.65186300000000	0.00000000000000	0.00000000000000	0.00000000000000	0.00000000000000	
12.75996400000000	-2.88506800000000	715.39305600000000	48.78061700000000	0.28874100000000	0.00000000000000	0.11032200000000	0.00000000000000	0.00000000000000	0.00000000000000	0.00000000000000	0.00000000000000	0.00000000000000	0.00000000000000	29.69878100000000	0.00000000000000	0.00000000000000	0.00000000000000	0.00000000000000	
12.76162200000000	-3.19352300000000	716.50475400000005	48.81736800000000	0.28799700000000	0.00000000000000	0.11027000000000	0.00000000000000	0.00000000000000	0.00000000000000	0.00000000000000	0.00000000000000	0.00000000000000	0.00000000000000	29.74795500000000	0.00000000000000	0.00000000000000	0.00000000000000	0.00000000000000	
12.76328700000000	-3.50669900000000	717.64236300000005	48.85543300000000	0.28726400000000	0.00000000000000	0.11021500000000	0.00000000000000	0.00000000000000	0.00000000000000	0.00000000000000	0.00000000000000	0.00000000000000	0.00000000000000	29.79920400000000	0.00000000000000	0.00000000000000	0.00000000000000	0.00000000000000	
12.76495300000000	-3.82470500000000	718.80537200000003	48.89463200000000	0.28654100000000	0.00000000000000	0.11015700000000	0.00000000000000	0.00000000000000	0.00000000000000	0.00000000000000	0.00000000000000	0.00000000000000	0.00000000000000	29.85234900000000	0.00000000000000	0.00000000000000	0.00000000000000	0.00000000000000	
12.76661800000000	-4.14763000000000	719.99333300000001	48.93479800000000	0.28582700000000	0.00000000000000	0.11009700000000	0.00000000000000	0.00000000000000	0.00000000000000	0.00000000000000	0.00000000000000	0.00000000000000	0.00000000000000	29.90721300000000	0.00000000000000	0.00000000000000	0.00000000000000	0.00000000000000	
12.76828800000000	-4.47553700000000	721.20584499999995	48.97577800000000	0.28512100000000	0.00000000000000	0.11003500000000	0.00000000000000	0.00000000000000	0.00000000000000	0.00000000000000	0.00000000000000	0.00000000000000	0.00000000000000	29.96362300000000	0.00000000000000	0.00000000000000	0.00000000000000	0.00000000000000	
12.76995100000000	-4.80846900000000	722.44255899999996	49.01743600000000	0.28442200000000	0.00000000000000	0.10996900000000	0.00000000000000	0.00000000000000	0.00000000000000	0.00000000000000	0.00000000000000	0.00000000000000	0.00000000000000	30.02141100000000	0.00000000000000	0.00000000000000	0.00000000000000	0.00000000000000	
12.77161700000000	-5.14644100000000	723.70316300000002	49.05964800000000	0.28372900000000	0.00000000000000	0.10990200000000	0.00000000000000	0.00000000000000	0.00000000000000	0.00000000000000	0.00000000000000	0.00000000000000	0.00000000000000	30.08041000000000	0.00000000000000	0.00000000000000	0.00000000000000	0.00000000000000	
12.77328500000000	-5.48945100000000	724.98738500000002	49.10230900000000	0.28304200000000	0.00000000000000	0.10983300000000	0.00000000000000	0.00000000000000	0.00000000000000	0.00000000000000	0.00000000000000	0.00000000000000	0.00000000000000	30.14046000000000	0.00000000000000	0.00000000000000	0.00000000000000	0.00000000000000	
12.77496100000000	-5.83746900000000	726.29497700000002	49.14532700000000	0.28236000000000	0.00000000000000	0.10976100000000	0.00000000000000	0.00000000000000	0.00000000000000	0.00000000000000	0.00000000000000	0.00000000000000	0.00000000000000	30.20140600000000	0.00000000000000	0.00000000000000	0.00000000000000	0.00000000000000	
12.77663100000000	-6.19044600000000	727.62571600000001	49.18863000000000	0.28168100000000	0.00000000000000	0.10968800000000	0.00000000000000	0.00000000000000	0.00000000000000	0.00000000000000	0.00000000000000	0.00000000000000	0.00000000000000	30.26309700000000	0.00000000000000	0.00000000000000	0.00000000000000	0.00000000000000	
12.77828300000000	-6.54830800000000	728.97939299999996	49.23215800000000	0.28100500000000	0.00000000000000	0.10961200000000	0.00000000000000	0.00000000000000	0.00000000000000	0.00000000000000	0.00000000000000	0.00000000000000	0.00000000000000	30.32538700000000	0.00000000000000	0.00000000000000	0.00000000000000	0.00000000000000	
12.77995000000000	-6.91096100000000	730.35580800000002	49.27587200000000	0.28033100000000	0.00000000000000	0.10953500000000	0.00000000000000	0.00000000000000	0.00000000000000	0.00000000000000	0.00000000000000	0.00000000000000	0.00000000000000	30.38813800000000	0.00000000000000	0.00000000000000	0.00000000000000	0.00000000000000	
12.78161900000000	-7.27828900000000	731.75475900000004	49.31974700000000	0.27965800000000	0.00000000000000	0.10945700000000	0.00000000000000	0.00000000000000	0.00000000000000	0.00000000000000	0.00000000000000	0.00000000000000	0.00000000000000	30.45121600000000	0.00000000000000	0.00000000000000	0.00000000000000	0.00000000000000	
12.78328500000000	-7.65015600000000	733.17604100000005	49.36377600000000	0.27898600000000	0.00000000000000	0.10937700000000	0.00000000000000	0.00000000000000	0.00000000000000	0.00000000000000	0.00000000000000	0.00000000000000	0.00000000000000	30.51449500000000	0.00000000000000	0.00000000000000	0.00000000000000	0.00000000000000	
12.78494900000000	-8.02640700000000	734.61943199999996	49.40796900000000	0.27831500000000	0.00000000000000	0.10929600000000	0.00000000000000	0.00000000000000	0.00000000000000	0.00000000000000	0.00000000000000	0.00000000000000	0.00000000000000	30.57785400000000	0.00000000000000	0.00000000000000	0.00000000000000	0.00000000000000	
12.78662300000000	-8.40686500000000	736.08469100000002	49.45235100000000	0.27764300000000	0.00000000000000	0.10921300000000	0.00000000000000	0.00000000000000	0.00000000000000	0.00000000000000	0.00000000000000	0.00000000000000	0.00000000000000	30.64117800000000	0.00000000000000	0.00000000000000	0.00000000000000	0.00000000000000	
12.78828500000000	-8.79133700000000	737.57154600000001	49.49696500000000	0.27696900000000	0.00000000000000	0.10913000000000	0.00000000000000	0.00000000000000	0.00000000000000	0.00000000000000	0.00000000000000	0.00000000000000	0.00000000000000	30.70436200000000	0.00000000000000	0.00000000000000	0.00000000000000	0.00000000000000	
12.78995200000000	-9.17961400000000	739.07969200000002	49.54186900000000	0.27629500000000	0.00000000000000	0.10904500000000	0.00000000000000	0.00000000000000	0.00000000000000	0.00000000000000	0.00000000000000	0.00000000000000	0.00000000000000	30.76730600000000	0.00000000000000	0.00000000000000	0.00000000000000	0.00000000000000	
12.79161900000000	-9.57146900000000	740.60878100000002	49.58713600000000	0.27561800000000	0.00000000000000	0.10896000000000	0.00000000000000	0.00000000000000	0.00000000000000	0.00000000000000	0.00000000000000	0.00000000000000	0.00000000000000	30.82991500000000	0.00000000000000	0.00000000000000	0.00000000000000	0.00000000000000	
12.79328400000000	-9.96666000000000	742.15841499999999	49.63285600000000	0.27493900000000	0.00000000000000	0.10887400000000	0.00000000000000	0.00000000000000	0.00000000000000	0.00000000000000	0.00000000000000	0.00000000000000	0.00000000000000	30.89210400000000	0.00000000000000	0.00000000000000	0.00000000000000	0.00000000000000	
